G04*
G04 #@! TF.GenerationSoftware,Altium Limited,Altium Designer,20.2.3 (150)*
G04*
G04 Layer_Color=255*
%FSLAX25Y25*%
%MOIN*%
G70*
G04*
G04 #@! TF.SameCoordinates,D737100D-CD50-4B0A-90DA-B4B5F6E14D25*
G04*
G04*
G04 #@! TF.FilePolarity,Positive*
G04*
G01*
G75*
%ADD12R,0.01968X0.05000*%
%ADD13R,0.00394X0.00394*%
%ADD14R,0.00984X0.00787*%
%ADD15R,0.00787X0.00984*%
%ADD23C,0.06000*%
%ADD24C,0.09449*%
D12*
X42141Y16087D02*
D03*
X48440D02*
D03*
X38204Y59394D02*
D03*
X44503D02*
D03*
X42141Y33803D02*
D03*
X48440D02*
D03*
X55724Y14118D02*
D03*
X62023D02*
D03*
X69700Y18055D02*
D03*
X75999D02*
D03*
X68716Y44630D02*
D03*
X75015D02*
D03*
D13*
X65901Y35910D02*
D03*
Y28036D02*
D03*
X56905Y26914D02*
D03*
X55783Y28036D02*
D03*
Y35910D02*
D03*
X56905Y37032D02*
D03*
X64779Y26914D02*
D03*
X64779Y37071D02*
D03*
D14*
X65901Y34335D02*
D03*
Y32760D02*
D03*
Y31185D02*
D03*
Y29610D02*
D03*
X55783D02*
D03*
Y31185D02*
D03*
Y32760D02*
D03*
Y34335D02*
D03*
D15*
X58480Y26914D02*
D03*
X60054D02*
D03*
X61629D02*
D03*
X63204D02*
D03*
X58480Y37032D02*
D03*
X60054D02*
D03*
X61629D02*
D03*
X63204D02*
D03*
D23*
X39228Y49551D02*
D03*
X49228D02*
D03*
X59228D02*
D03*
X13007Y23803D02*
D03*
Y33803D02*
D03*
X26590Y34945D02*
D03*
Y24945D02*
D03*
Y14945D02*
D03*
D24*
X83873Y65299D02*
D03*
Y10181D02*
D03*
X9070Y65299D02*
D03*
Y10181D02*
D03*
M02*
