G04*
G04 #@! TF.GenerationSoftware,Altium Limited,Altium Designer,20.2.3 (150)*
G04*
G04 Layer_Physical_Order=1*
G04 Layer_Color=255*
%FSLAX25Y25*%
%MOIN*%
G70*
G04*
G04 #@! TF.SameCoordinates,D737100D-CD50-4B0A-90DA-B4B5F6E14D25*
G04*
G04*
G04 #@! TF.FilePolarity,Positive*
G04*
G01*
G75*
%ADD12R,0.01968X0.05000*%
%ADD13R,0.00394X0.00394*%
%ADD14R,0.00984X0.00787*%
%ADD15R,0.00787X0.00984*%
%ADD22C,0.00600*%
%ADD23C,0.06000*%
%ADD24C,0.09449*%
%ADD25C,0.05000*%
G36*
X8676Y77301D02*
X9228Y77277D01*
X9725Y77301D01*
X87317D01*
X87317Y77301D01*
X87317Y77301D01*
X88199Y77301D01*
X89928Y76957D01*
X91557Y76282D01*
X93023Y75302D01*
X93647Y74679D01*
X93647Y74679D01*
Y74679D01*
X94153Y74173D01*
X94949Y72982D01*
X95497Y71659D01*
X95776Y70254D01*
X95776Y69538D01*
X95776Y5607D01*
X95776Y5607D01*
X95776Y4924D01*
X95509Y3583D01*
X94985Y2320D01*
X94226Y1184D01*
X93743Y701D01*
X93189Y148D01*
X91889Y-720D01*
X90444Y-1318D01*
X88910Y-1623D01*
X3919D01*
X2514Y-1344D01*
X1191Y-796D01*
X0Y0D01*
X-506Y506D01*
X-506Y506D01*
X-1060Y1060D01*
X-1929Y2361D01*
X-2528Y3806D01*
X-2833Y5341D01*
X-2833Y6123D01*
X-3134Y68765D01*
X-3136Y69236D01*
X-3136Y69236D01*
X-3136Y69236D01*
X-3147Y69978D01*
X-2901Y71441D01*
X-2396Y72835D01*
X-1649Y74116D01*
X-1166Y74679D01*
X-638Y75289D01*
X635Y76280D01*
X2078Y77003D01*
X3633Y77431D01*
X4438Y77489D01*
X8676Y77301D01*
D02*
G37*
%LPC*%
G36*
X83873Y70670D02*
X82483Y70487D01*
X81188Y69950D01*
X80076Y69097D01*
X79223Y67985D01*
X78686Y66689D01*
X78503Y65299D01*
X78686Y63910D01*
X79223Y62614D01*
X80076Y61502D01*
X81188Y60649D01*
X82483Y60112D01*
X83873Y59929D01*
X85263Y60112D01*
X86559Y60649D01*
X87671Y61502D01*
X88524Y62614D01*
X89061Y63910D01*
X89244Y65299D01*
X89061Y66689D01*
X88524Y67985D01*
X87671Y69097D01*
X86559Y69950D01*
X85263Y70487D01*
X83873Y70670D01*
D02*
G37*
G36*
X9070D02*
X7680Y70487D01*
X6385Y69950D01*
X5273Y69097D01*
X4419Y67985D01*
X3883Y66689D01*
X3700Y65299D01*
X3883Y63910D01*
X4419Y62614D01*
X5273Y61502D01*
X6385Y60649D01*
X7680Y60112D01*
X9070Y59929D01*
X10460Y60112D01*
X11755Y60649D01*
X12868Y61502D01*
X13721Y62614D01*
X14257Y63910D01*
X14441Y65299D01*
X14257Y66689D01*
X13721Y67985D01*
X12868Y69097D01*
X11755Y69950D01*
X10460Y70487D01*
X9070Y70670D01*
D02*
G37*
G36*
X40188Y62894D02*
X38704D01*
Y59894D01*
X40188D01*
Y62894D01*
D02*
G37*
G36*
X37704D02*
X36220D01*
Y59894D01*
X37704D01*
Y62894D01*
D02*
G37*
G36*
X40188Y58894D02*
X38704D01*
Y55894D01*
X40188D01*
Y58894D01*
D02*
G37*
G36*
X37704D02*
X36220D01*
Y55894D01*
X37704D01*
Y58894D01*
D02*
G37*
G36*
X46088Y62494D02*
X42919D01*
Y56294D01*
X43586D01*
Y47386D01*
X43655Y47035D01*
X43854Y46737D01*
X46610Y43981D01*
X46908Y43782D01*
X47259Y43713D01*
X49217D01*
X49387Y43213D01*
X48985Y42904D01*
X48488Y42257D01*
X48176Y41502D01*
X48069Y40693D01*
X48176Y39884D01*
X48488Y39130D01*
X48985Y38482D01*
X49633Y37985D01*
X50072Y37803D01*
X49973Y37303D01*
X48940D01*
Y34303D01*
X50424D01*
Y37164D01*
X50794Y37620D01*
X51196Y37567D01*
X52005Y37673D01*
X52512Y37883D01*
X54603Y35792D01*
X54641Y35589D01*
Y35496D01*
X54674Y35418D01*
X54691Y35329D01*
X54691Y35329D01*
Y33341D01*
Y29587D01*
X54212Y29389D01*
X54160Y29411D01*
X51319Y32252D01*
X51021Y32451D01*
X50670Y32521D01*
X50424D01*
Y33303D01*
X48940D01*
Y30303D01*
X50424D01*
X50424Y30303D01*
Y30303D01*
X50854Y30121D01*
X52682Y28293D01*
X52491Y27831D01*
X41734D01*
X36366Y33199D01*
Y38715D01*
X36866Y38884D01*
X37174Y38482D01*
X37822Y37985D01*
X38576Y37673D01*
X39385Y37567D01*
X40194Y37673D01*
X40840Y37940D01*
X41223Y37557D01*
Y36903D01*
X40557D01*
Y30703D01*
X43725D01*
Y36903D01*
X43059D01*
Y37937D01*
X42989Y38289D01*
X42790Y38586D01*
X42138Y39238D01*
X42405Y39884D01*
X42512Y40693D01*
X42405Y41502D01*
X42093Y42257D01*
X41596Y42904D01*
X40949Y43401D01*
X40194Y43713D01*
X39385Y43820D01*
X38576Y43713D01*
X37822Y43401D01*
X37174Y42904D01*
X36866Y42502D01*
X36366Y42672D01*
Y44003D01*
X38393Y46030D01*
X39228Y45920D01*
X40167Y46044D01*
X41043Y46407D01*
X41795Y46984D01*
X42372Y47736D01*
X42735Y48612D01*
X42859Y49551D01*
X42735Y50491D01*
X42372Y51367D01*
X41795Y52119D01*
X41043Y52696D01*
X40167Y53059D01*
X39228Y53183D01*
X38288Y53059D01*
X37412Y52696D01*
X36660Y52119D01*
X36083Y51367D01*
X35720Y50491D01*
X35597Y49551D01*
X35720Y48612D01*
X36083Y47736D01*
X36660Y46984D01*
X36666Y46898D01*
X34799Y45032D01*
X34600Y44734D01*
X34530Y44383D01*
Y32819D01*
X34600Y32468D01*
X34799Y32170D01*
X40705Y26265D01*
X41003Y26066D01*
X41354Y25996D01*
X54414D01*
X54567Y25894D01*
X54918Y25824D01*
X56333D01*
X56368Y25831D01*
X56511Y25772D01*
X57298D01*
X57460Y25839D01*
X57486Y25822D01*
Y25822D01*
X59128D01*
X59133Y25322D01*
X53016Y19205D01*
X49125D01*
X49036Y19187D01*
X46856D01*
Y12987D01*
X50024D01*
Y17369D01*
X53396D01*
X53671Y17424D01*
X53716Y17433D01*
X53717Y17433D01*
X53734Y17432D01*
X53850Y17350D01*
X54139Y17100D01*
X54139Y16792D01*
Y11018D01*
X54216D01*
Y10204D01*
X53570Y9937D01*
X52922Y9440D01*
X52425Y8792D01*
X52113Y8038D01*
X52006Y7229D01*
X52113Y6419D01*
X52425Y5665D01*
X52922Y5018D01*
X53570Y4521D01*
X54324Y4208D01*
X55133Y4102D01*
X55942Y4208D01*
X56696Y4521D01*
X57344Y5018D01*
X57841Y5665D01*
X58153Y6419D01*
X58260Y7229D01*
X58153Y8038D01*
X57841Y8792D01*
X57344Y9440D01*
X56696Y9937D01*
X56051Y10204D01*
Y11018D01*
X57308D01*
Y17218D01*
X54597D01*
X54317Y17218D01*
X54189Y17415D01*
X54115Y17708D01*
X60703Y24296D01*
X60902Y24594D01*
X60972Y24945D01*
Y25822D01*
X61810D01*
Y25422D01*
X62286D01*
Y17618D01*
X60039D01*
Y14618D01*
X64007D01*
Y16397D01*
X64052Y16464D01*
X64122Y16815D01*
Y21743D01*
X64235Y21879D01*
X64622Y22094D01*
X64795Y22059D01*
X70373D01*
X70815Y21617D01*
X70623Y21155D01*
X68116D01*
Y14955D01*
X68979D01*
Y13157D01*
X68334Y12889D01*
X67686Y12392D01*
X67189Y11745D01*
X66877Y10991D01*
X66770Y10181D01*
X66877Y9372D01*
X67189Y8618D01*
X67686Y7970D01*
X68334Y7474D01*
X69088Y7161D01*
X69897Y7055D01*
X70706Y7161D01*
X71460Y7474D01*
X72108Y7970D01*
X72605Y8618D01*
X72917Y9372D01*
X73024Y10181D01*
X72917Y10991D01*
X72605Y11745D01*
X72108Y12392D01*
X71460Y12889D01*
X70815Y13157D01*
Y14955D01*
X71284D01*
Y20495D01*
X71746Y20686D01*
X72826Y19606D01*
X73123Y19408D01*
X73475Y19338D01*
X74015D01*
Y18555D01*
X75499D01*
Y21555D01*
X74015D01*
Y21555D01*
X73515Y21513D01*
X71402Y23626D01*
X71104Y23824D01*
X70753Y23894D01*
X65175D01*
X64148Y24922D01*
X64185Y25422D01*
X64598D01*
Y25772D01*
X65172D01*
X65632Y25962D01*
X65632Y25962D01*
X65822Y26421D01*
X65822Y26993D01*
X66393D01*
X66852Y27183D01*
X67042Y27642D01*
Y28429D01*
X66976Y28591D01*
X66993Y28617D01*
X66993D01*
Y31766D01*
Y35329D01*
X66993D01*
X66981Y35347D01*
X67042Y35496D01*
Y36284D01*
X66852Y36743D01*
X66393Y36933D01*
X66195D01*
X65842Y37287D01*
X65842Y37524D01*
X65716Y37827D01*
Y42282D01*
X66670Y43235D01*
X67132Y43044D01*
Y41530D01*
X70300D01*
Y47730D01*
X67132D01*
Y45548D01*
X66767D01*
X66416Y45478D01*
X66216Y45344D01*
X65716Y45509D01*
Y50713D01*
X65646Y51064D01*
X65447Y51362D01*
X61687Y55122D01*
X61390Y55321D01*
X61039Y55390D01*
X57102D01*
X56751Y55321D01*
X56453Y55122D01*
X52818Y51487D01*
X52207Y51583D01*
X51795Y52119D01*
X51043Y52696D01*
X50167Y53059D01*
X49228Y53183D01*
X48288Y53059D01*
X47412Y52696D01*
X46660Y52119D01*
X46083Y51367D01*
X45921Y50976D01*
X45421Y51075D01*
Y56294D01*
X46088D01*
Y62494D01*
D02*
G37*
G36*
X76999Y48130D02*
X75515D01*
Y45130D01*
X76999D01*
Y48130D01*
D02*
G37*
G36*
X74515D02*
X73031D01*
Y45130D01*
X74515D01*
Y48130D01*
D02*
G37*
G36*
X76999Y44130D02*
X75515D01*
Y41130D01*
X76999D01*
Y44130D01*
D02*
G37*
G36*
X74515D02*
X73031D01*
Y41130D01*
X74515D01*
Y44130D01*
D02*
G37*
G36*
X27090Y38914D02*
Y35445D01*
X30558D01*
X30487Y35989D01*
X30084Y36962D01*
X29443Y37798D01*
X28607Y38439D01*
X27634Y38842D01*
X27090Y38914D01*
D02*
G37*
G36*
X26090D02*
X25546Y38842D01*
X24573Y38439D01*
X23737Y37798D01*
X23096Y36962D01*
X22693Y35989D01*
X22621Y35445D01*
X26090D01*
Y38914D01*
D02*
G37*
G36*
X47940Y37303D02*
X46456D01*
Y34303D01*
X47940D01*
Y37303D01*
D02*
G37*
G36*
X30558Y34445D02*
X27090D01*
Y30977D01*
X27634Y31048D01*
X28607Y31451D01*
X29443Y32092D01*
X30084Y32928D01*
X30487Y33901D01*
X30558Y34445D01*
D02*
G37*
G36*
X26090D02*
X22621D01*
X22693Y33901D01*
X23096Y32928D01*
X23737Y32092D01*
X24573Y31451D01*
X25546Y31048D01*
X26090Y30977D01*
Y34445D01*
D02*
G37*
G36*
X47940Y33303D02*
X46456D01*
Y30303D01*
X47940D01*
Y33303D01*
D02*
G37*
G36*
X13007Y37435D02*
X12067Y37311D01*
X11192Y36948D01*
X10440Y36371D01*
X9863Y35619D01*
X9500Y34743D01*
X9376Y33803D01*
X9500Y32864D01*
X9863Y31988D01*
X10440Y31236D01*
X11192Y30659D01*
X12067Y30296D01*
X13007Y30172D01*
X13947Y30296D01*
X14823Y30659D01*
X15575Y31236D01*
X16152Y31988D01*
X16514Y32864D01*
X16638Y33803D01*
X16514Y34743D01*
X16152Y35619D01*
X15575Y36371D01*
X14823Y36948D01*
X13947Y37311D01*
X13007Y37435D01*
D02*
G37*
G36*
X26590Y28576D02*
X25650Y28453D01*
X24774Y28090D01*
X24022Y27513D01*
X23445Y26761D01*
X23083Y25885D01*
X22959Y24945D01*
X23083Y24005D01*
X23445Y23130D01*
X24022Y22378D01*
X24774Y21801D01*
X25650Y21438D01*
X26590Y21314D01*
X27530Y21438D01*
X28405Y21801D01*
X29157Y22378D01*
X29734Y23130D01*
X30097Y24005D01*
X30221Y24945D01*
X30097Y25885D01*
X29734Y26761D01*
X29157Y27513D01*
X28405Y28090D01*
X27530Y28453D01*
X26590Y28576D01*
D02*
G37*
G36*
X77983Y21555D02*
X76499D01*
Y18555D01*
X77983D01*
Y21555D01*
D02*
G37*
G36*
Y17555D02*
X76499D01*
Y14555D01*
X77983D01*
Y17555D01*
D02*
G37*
G36*
X75499D02*
X74015D01*
Y14555D01*
X75499D01*
Y17555D01*
D02*
G37*
G36*
X37417Y25119D02*
X36607Y25013D01*
X35853Y24700D01*
X35206Y24203D01*
X34709Y23556D01*
X34396Y22802D01*
X34290Y21992D01*
X34396Y21183D01*
X34709Y20429D01*
X35206Y19782D01*
X35853Y19285D01*
X36607Y18972D01*
X37417Y18866D01*
X38226Y18972D01*
X38980Y19285D01*
X39083Y19363D01*
X40557Y17889D01*
Y12987D01*
X43725D01*
Y19187D01*
X41855D01*
X40267Y20774D01*
X40437Y21183D01*
X40543Y21992D01*
X40437Y22802D01*
X40124Y23556D01*
X39628Y24203D01*
X38980Y24700D01*
X38226Y25013D01*
X37417Y25119D01*
D02*
G37*
G36*
X13007Y27435D02*
X12067Y27311D01*
X11192Y26948D01*
X10440Y26371D01*
X9863Y25619D01*
X9500Y24743D01*
X9376Y23803D01*
X9500Y22864D01*
X9863Y21988D01*
X10440Y21236D01*
X11192Y20659D01*
X12067Y20296D01*
X13007Y20172D01*
X13947Y20296D01*
X14823Y20659D01*
X14840Y20673D01*
X15311Y20202D01*
X15609Y20003D01*
X15960Y19933D01*
X20304D01*
X23459Y16778D01*
X23445Y16761D01*
X23083Y15885D01*
X22959Y14945D01*
X23083Y14005D01*
X23445Y13130D01*
X24022Y12378D01*
X24774Y11801D01*
X25650Y11438D01*
X26590Y11314D01*
X27530Y11438D01*
X28405Y11801D01*
X29157Y12378D01*
X29734Y13130D01*
X30097Y14005D01*
X30221Y14945D01*
X30097Y15885D01*
X29734Y16761D01*
X29157Y17513D01*
X28405Y18090D01*
X27530Y18452D01*
X26590Y18576D01*
X25650Y18452D01*
X24774Y18090D01*
X24757Y18076D01*
X21333Y21499D01*
X21035Y21699D01*
X20684Y21768D01*
X16586D01*
X16253Y22232D01*
X16514Y22864D01*
X16638Y23803D01*
X16514Y24743D01*
X16152Y25619D01*
X15575Y26371D01*
X14823Y26948D01*
X13947Y27311D01*
X13007Y27435D01*
D02*
G37*
G36*
X64007Y13618D02*
X62523D01*
Y10618D01*
X64007D01*
Y13618D01*
D02*
G37*
G36*
X61523D02*
X60039D01*
Y10618D01*
X61523D01*
Y13618D01*
D02*
G37*
G36*
X83873Y15552D02*
X82483Y15369D01*
X81188Y14832D01*
X80076Y13979D01*
X79223Y12867D01*
X78686Y11571D01*
X78503Y10181D01*
X78686Y8792D01*
X79223Y7496D01*
X80076Y6384D01*
X81188Y5531D01*
X82483Y4994D01*
X83873Y4811D01*
X85263Y4994D01*
X86559Y5531D01*
X87671Y6384D01*
X88524Y7496D01*
X89061Y8792D01*
X89244Y10181D01*
X89061Y11571D01*
X88524Y12867D01*
X87671Y13979D01*
X86559Y14832D01*
X85263Y15369D01*
X83873Y15552D01*
D02*
G37*
G36*
X9070D02*
X7680Y15369D01*
X6385Y14832D01*
X5273Y13979D01*
X4419Y12867D01*
X3883Y11571D01*
X3700Y10181D01*
X3883Y8792D01*
X4419Y7496D01*
X5273Y6384D01*
X6385Y5531D01*
X7680Y4994D01*
X9070Y4811D01*
X10460Y4994D01*
X11755Y5531D01*
X12868Y6384D01*
X13721Y7496D01*
X14257Y8792D01*
X14441Y10181D01*
X14257Y11571D01*
X13721Y12867D01*
X12868Y13979D01*
X11755Y14832D01*
X10460Y15369D01*
X9070Y15552D01*
D02*
G37*
%LPD*%
G36*
X63881Y50333D02*
Y42662D01*
Y38124D01*
X62547D01*
Y41409D01*
X62477Y41761D01*
X62278Y42058D01*
X60145Y44191D01*
Y46041D01*
X60167Y46044D01*
X61043Y46407D01*
X61795Y46984D01*
X62372Y47736D01*
X62735Y48612D01*
X62859Y49551D01*
X62735Y50491D01*
X62537Y50970D01*
X62961Y51253D01*
X63881Y50333D01*
D02*
G37*
G36*
X65192Y36855D02*
X64877Y36540D01*
X64405Y36540D01*
Y37524D01*
X65192D01*
X65192Y36855D01*
D02*
G37*
G36*
X57318Y36500D02*
X56846D01*
X56531Y36815D01*
Y37484D01*
X57318D01*
Y36500D01*
D02*
G37*
G36*
X55960Y36284D02*
X56275Y35969D01*
X56275Y35496D01*
X55291D01*
Y36284D01*
X55960Y36284D01*
D02*
G37*
G36*
X66393Y35496D02*
X65409D01*
Y35969D01*
X65724Y36284D01*
X66393D01*
Y35496D01*
D02*
G37*
G36*
X56275Y27957D02*
X55960Y27642D01*
X55291Y27642D01*
Y28429D01*
X56275D01*
X56275Y27957D01*
D02*
G37*
G36*
X66393Y27642D02*
X65724D01*
X65409Y27957D01*
Y28429D01*
X66393D01*
Y27642D01*
D02*
G37*
G36*
X64198Y35940D02*
X64405Y35890D01*
X64406D01*
X64759Y35537D01*
Y35496D01*
X64821Y35347D01*
X64809Y35329D01*
X64809D01*
Y33341D01*
Y28818D01*
X64669Y28545D01*
X64396Y28406D01*
X63704D01*
Y26914D01*
X62704D01*
Y28406D01*
X62547D01*
Y30445D01*
X62477Y30796D01*
X62278Y31094D01*
X59397Y33974D01*
Y35940D01*
X64198D01*
Y35940D01*
D02*
G37*
G36*
X64858Y27406D02*
X65172Y27091D01*
X65172Y26422D01*
X64385D01*
Y27406D01*
X64858Y27406D01*
D02*
G37*
G36*
X57298Y26422D02*
X56511D01*
Y27091D01*
X56826Y27406D01*
X57298D01*
Y26422D01*
D02*
G37*
D12*
X42141Y16087D02*
D03*
X48440D02*
D03*
X38204Y59394D02*
D03*
X44503D02*
D03*
X42141Y33803D02*
D03*
X48440D02*
D03*
X55724Y14118D02*
D03*
X62023D02*
D03*
X69700Y18055D02*
D03*
X75999D02*
D03*
X68716Y44630D02*
D03*
X75015D02*
D03*
D13*
X65901Y35910D02*
D03*
Y28036D02*
D03*
X56905Y26914D02*
D03*
X55783Y28036D02*
D03*
Y35910D02*
D03*
X56905Y37032D02*
D03*
X64779Y26914D02*
D03*
X64779Y37071D02*
D03*
D14*
X65901Y34335D02*
D03*
Y32760D02*
D03*
Y31185D02*
D03*
Y29610D02*
D03*
X55783D02*
D03*
Y31185D02*
D03*
Y32760D02*
D03*
Y34335D02*
D03*
D15*
X58480Y26914D02*
D03*
X60054D02*
D03*
X61629D02*
D03*
X63204D02*
D03*
X58480Y37032D02*
D03*
X60054D02*
D03*
X61629D02*
D03*
X63204D02*
D03*
D22*
X13007Y23803D02*
X15960Y20851D01*
X42141Y16087D02*
Y17603D01*
X37417Y21992D02*
X37751D01*
X39385Y40693D02*
X42141Y37937D01*
X39228Y48162D02*
Y49551D01*
X35448Y44383D02*
X39228Y48162D01*
X48440Y16087D02*
Y17603D01*
X49125Y18287D01*
X48440Y32288D02*
Y33803D01*
Y32288D02*
X49125Y31603D01*
X49228Y49551D02*
X49823Y50147D01*
X44503Y47386D02*
X47259Y44630D01*
X55133Y13528D02*
X55724Y14118D01*
X54746Y26914D02*
X54918Y26742D01*
X56333D01*
X56504Y26914D01*
X56905D01*
X51196Y40693D02*
X55382D01*
X51196Y40496D02*
Y40693D01*
X58386Y37126D02*
Y37690D01*
X55382Y40693D02*
X58386Y37690D01*
X62023Y15634D02*
X63204Y16815D01*
X62023Y14118D02*
Y15634D01*
X63204Y24568D02*
Y26914D01*
X60054Y24945D02*
Y26914D01*
X63204Y24568D02*
X64795Y22977D01*
X61629Y37032D02*
Y41409D01*
X64798Y37091D02*
Y42662D01*
X64779Y37071D02*
X64798Y37091D01*
X69700Y18055D02*
X69897Y17859D01*
X70753Y22977D02*
X73475Y20255D01*
X42141Y33803D02*
Y37937D01*
X37751Y21992D02*
X42141Y17603D01*
X35448Y32819D02*
X41354Y26914D01*
X44503Y47386D02*
Y59394D01*
X54159Y28114D02*
X55705D01*
X55783Y28036D01*
X52776Y50147D02*
X57102Y54473D01*
X63204Y16815D02*
Y24568D01*
X61629Y26914D02*
Y30445D01*
X59228Y43811D02*
X61629Y41409D01*
X59228Y43811D02*
Y49551D01*
X61039Y54473D02*
X64798Y50713D01*
Y42662D02*
Y50713D01*
X69897Y10181D02*
Y17859D01*
X75999Y18055D02*
Y19571D01*
X75315Y20255D02*
X75999Y19571D01*
X35448Y32819D02*
Y44383D01*
X55133Y7229D02*
Y13528D01*
X51196Y40496D02*
X55783Y35910D01*
X15960Y20851D02*
X20684D01*
X49125Y18287D02*
X53396D01*
X41354Y26914D02*
X54746D01*
X49125Y31603D02*
X50670D01*
X58480Y33594D02*
X61629Y30445D01*
X58386Y37126D02*
X58480Y37032D01*
X49823Y50147D02*
X52776D01*
X66767Y44630D02*
X68716D01*
X47259D02*
X58408D01*
X57102Y54473D02*
X61039D01*
X73475Y20255D02*
X75315D01*
X20684Y20851D02*
X26590Y14945D01*
X50670Y31603D02*
X54159Y28114D01*
X58480Y33594D02*
Y37032D01*
X53396Y18287D02*
X60054Y24945D01*
X58408Y44630D02*
X59228Y43811D01*
X64798Y42662D02*
X66767Y44630D01*
X64795Y22977D02*
X70753D01*
D23*
X39228Y49551D02*
D03*
X49228D02*
D03*
X59228D02*
D03*
X13007Y23803D02*
D03*
Y33803D02*
D03*
X26590Y34945D02*
D03*
Y24945D02*
D03*
Y14945D02*
D03*
D24*
X83873Y65299D02*
D03*
Y10181D02*
D03*
X9070Y65299D02*
D03*
Y10181D02*
D03*
D25*
X39385Y40693D02*
D03*
X55133Y7229D02*
D03*
X69897Y10181D02*
D03*
X51196Y40693D02*
D03*
X37417Y21992D02*
D03*
M02*
